<svg xmlns="http://www.w3.org/2000/svg" width="38.386" height="23.375" viewBox="0 0 38.386 23.375">
  <g id="cash" transform="translate(0 0)">
    <path id="Path_645" data-name="Path 645" d="M130.784,104.127c-31.822-7.007-16.193-3.554-32.423-7.162a.462.462,0,0,0-.566.327l-2.073,5.719h-2.86a.462.462,0,0,0-.462.462v16.389a.462.462,0,0,0,.462.462h33.375S130.89,104.188,130.784,104.127Zm-32.216-6.15c.668.179,15.57,3.391,25.225,5.5-.2-.041.467-.21.85-.131,0,0-16.61-.319-27.965-.331ZM125.785,119.4H93.324V103.934h32.461Zm.924-15.272,3.146.618-3.146,11.61Z" transform="translate(-92.4 -96.948)" fill="#424954"/>
    <path id="Path_646" data-name="Path 646" d="M132.093,311.029a1.51,1.51,0,0,1,1.509,1.509.462.462,0,0,0,.462.462h22.969a.462.462,0,0,0,.462-.462A1.51,1.51,0,0,1,159,311.029a.462.462,0,0,0,.462-.462v-5.973a.462.462,0,0,0-.462-.462,1.51,1.51,0,0,1-1.509-1.509.462.462,0,0,0-.462-.462H134.064a.462.462,0,0,0-.462.462,1.51,1.51,0,0,1-1.509,1.509.462.462,0,0,0-.462.462v5.973a.462.462,0,0,0,.462.461Zm.462-6.017a2.439,2.439,0,0,0,1.927-1.927h22.134a2.439,2.439,0,0,0,1.927,1.927v5.137a2.439,2.439,0,0,0-1.927,1.927H134.482a2.439,2.439,0,0,0-1.927-1.927Z" transform="translate(-128.394 -292.862)" fill="#424954"/>
    <path id="Path_647" data-name="Path 647" d="M269.31,339.622a2.789,2.789,0,1,0-2.789-2.789A2.792,2.792,0,0,0,269.31,339.622Zm0-4.654a1.865,1.865,0,1,1-1.865,1.865A1.867,1.867,0,0,1,269.31,334.968Z" transform="translate(-252.156 -322.115)" fill="#424954"/>
  </g>
</svg>
