<svg xmlns="http://www.w3.org/2000/svg" width="30.812" height="32.425" viewBox="0 0 30.812 32.425">
  <g id="order" transform="translate(0 0)">
    <g id="Group_1479" data-name="Group 1479" transform="translate(0 7.775)">
      <g id="Group_1478" data-name="Group 1478">
        <path id="Path_39" data-name="Path 39" d="M63.419,281.255c-.488-.259-.975-.514-1.463-.773l-3.527-1.861q-2.125-1.125-4.254-2.246-1.841-.975-3.686-1.948c-.594-.312-1.178-.654-1.782-.942a.14.14,0,0,1-.023-.013c.109.193.219.382.328.574V260.4c0-.627.023-1.257,0-1.885v-.027c-.332.193-.667.382-1,.574.488.259.975.514,1.463.773q1.762.931,3.527,1.865,2.125,1.125,4.254,2.246,1.841.975,3.686,1.948c.594.312,1.178.654,1.782.942a.147.147,0,0,1,.023.013c-.109-.192-.219-.382-.328-.574v13.627c0,.627-.017,1.257,0,1.884v.027a.664.664,0,0,0,1.327,0V268.192c0-.627.017-1.258,0-1.885v-.026a.669.669,0,0,0-.328-.574c-.488-.259-.975-.514-1.463-.773q-1.762-.931-3.527-1.865-2.125-1.125-4.254-2.246-1.841-.975-3.686-1.948c-.594-.315-1.184-.637-1.782-.942a.149.149,0,0,1-.023-.013.671.671,0,0,0-1,.574v13.64c0,.627-.017,1.258,0,1.885v.026a.668.668,0,0,0,.328.574c.488.259.975.514,1.463.773L53,277.253q2.125,1.125,4.254,2.246,1.841.975,3.686,1.948c.594.315,1.184.637,1.782.942a.147.147,0,0,1,.023.013.665.665,0,0,0,.67-1.148Z" transform="translate(-47.678 -257.838)" fill="#565e6a"/>
      </g>
    </g>
    <g id="Group_1481" data-name="Group 1481" transform="translate(14.735 7.788)">
      <g id="Group_1480" data-name="Group 1480">
        <path id="Path_40" data-name="Path 40" d="M506.849,273.861c-.488.259-.975.514-1.463.773l-3.527,1.861q-2.125,1.125-4.254,2.246-1.841.976-3.686,1.948c-.594.312-1.2.607-1.782.942l-.023.013c.332.193.667.382,1,.574V268.592c0-.627.027-1.258,0-1.885v-.027c-.109.193-.219.382-.328.574.488-.259.976-.514,1.463-.773q1.762-.931,3.527-1.865,2.125-1.125,4.254-2.246,1.841-.975,3.686-1.947c.594-.312,1.2-.607,1.782-.942l.023-.013c-.332-.192-.667-.382-1-.574v13.64c0,.627-.017,1.257,0,1.885v.026a.664.664,0,1,0,1.327,0V260.8c0-.627.017-1.257,0-1.884v-.027a.671.671,0,0,0-1-.574c-.488.259-.975.514-1.463.773q-1.762.931-3.527,1.865-2.125,1.125-4.254,2.246-1.841.976-3.686,1.948c-.594.315-1.2.611-1.782.942l-.023.013a.661.661,0,0,0-.329.574v13.627c0,.627-.017,1.258,0,1.885v.026a.671.671,0,0,0,1,.574c.488-.259.976-.514,1.463-.773l3.527-1.861q2.125-1.125,4.254-2.246,1.841-.975,3.686-1.948c.594-.312,1.2-.61,1.782-.942l.023-.013a.669.669,0,0,0,.239-.909A.682.682,0,0,0,506.849,273.861Z" transform="translate(-491.778 -258.238)" fill="#565e6a"/>
      </g>
    </g>
    <g id="Group_1483" data-name="Group 1483" transform="translate(0.009 0)">
      <g id="Group_1482" data-name="Group 1482">
        <path id="Path_41" data-name="Path 41" d="M77.747,31.363c-.488.259-.975.514-1.463.773q-1.762.931-3.527,1.865-2.125,1.125-4.254,2.246-1.841.975-3.686,1.948c-.594.312-1.2.607-1.782.942l-.023.013h.67c-.488-.259-.975-.514-1.463-.773q-1.762-.931-3.527-1.865-2.125-1.125-4.254-2.246-1.841-.975-3.686-1.948c-.594-.312-1.178-.654-1.782-.942a.144.144,0,0,1-.023-.013v1.145c.488-.259.975-.514,1.463-.773l3.527-1.861q2.125-1.125,4.254-2.246,1.841-.975,3.686-1.948c.594-.312,1.2-.607,1.782-.942l.023-.013h-.67c.488.259.975.514,1.463.773L68,27.358q2.125,1.125,4.254,2.246,1.841.975,3.686,1.948c.594.315,1.184.637,1.782.942a.144.144,0,0,1,.023.013.665.665,0,0,0,.67-1.148l-1.48-.783q-1.767-.936-3.537-1.868-2.135-1.125-4.267-2.253-1.836-.97-3.676-1.941c-.584-.309-1.165-.634-1.758-.929a.885.885,0,0,0-.906.1c-.305.163-.61.322-.912.484q-1.662.876-3.321,1.755l-4.26,2.25q-1.916,1.01-3.832,2.024c-.7.368-1.4.737-2.1,1.108a.893.893,0,0,0-.1.053.668.668,0,0,0,0,1.145l1.48.783q1.767.936,3.537,1.868l4.267,2.256q1.836.97,3.676,1.941c.584.309,1.165.637,1.758.929a.885.885,0,0,0,.906-.1c.305-.163.61-.322.912-.484q1.662-.876,3.321-1.755l4.26-2.25q1.916-1.015,3.832-2.027c.7-.368,1.4-.74,2.1-1.108a.9.9,0,0,0,.1-.053.669.669,0,0,0,.239-.909A.68.68,0,0,0,77.747,31.363Z" transform="translate(-47.95 -23.499)" fill="#565e6a"/>
      </g>
    </g>
    <g id="Group_1485" data-name="Group 1485" transform="translate(7.372 3.887)">
      <g id="Group_1484" data-name="Group 1484">
        <path id="Path_42" data-name="Path 42" d="M270.866,149.685c.488-.259.975-.514,1.463-.773q1.762-.931,3.527-1.865,2.125-1.125,4.253-2.246,1.842-.975,3.686-1.948c.594-.315,1.2-.61,1.782-.942l.023-.013a.669.669,0,0,0,.239-.909.682.682,0,0,0-.909-.239c-.488.259-.975.514-1.463.773q-1.762.931-3.527,1.865-2.125,1.125-4.254,2.246-1.841.975-3.686,1.948c-.594.315-1.2.61-1.782.942l-.023.013a.669.669,0,0,0-.239.909.676.676,0,0,0,.909.239Z" transform="translate(-269.866 -140.666)" fill="#565e6a"/>
      </g>
    </g>
  </g>
</svg>
