<svg xmlns="http://www.w3.org/2000/svg" width="38.207" height="26.349" viewBox="0 0 38.207 26.349">
  <g id="return" transform="translate(0)">
    <path id="Path_635" data-name="Path 635" d="M263.258,105h-26.35a.659.659,0,0,0-.659.659v25.032a.659.659,0,0,0,.659.659h26.35a.659.659,0,0,0,.659-.659V105.659a.659.659,0,0,0-.659-.659Zm-8.564,1.317V112.9h-9.222v-6.587Zm7.9,23.715H237.568V106.317h6.587v7.246a.659.659,0,0,0,.659.659h10.54a.659.659,0,0,0,.659-.659v-7.246H262.6Z" transform="translate(-225.71 -105)" fill="#565e6a"/>
    <path id="Path_636" data-name="Path 636" d="M102.354,208.01v.982l2.846-1.64-2.846-1.64v.982H96.906a.659.659,0,1,0,0,1.317Z" transform="translate(-96.247 -198.129)" fill="#565e6a"/>
    <path id="Path_637" data-name="Path 637" d="M108.13,311.693h-5.448v-.982l-2.846,1.64,2.846,1.64v-.982h5.448a.659.659,0,0,0,0-1.318Z" transform="translate(-99.566 -295.224)" fill="#565e6a"/>
  </g>
</svg>
