<svg xmlns="http://www.w3.org/2000/svg" width="26.893" height="32.643" viewBox="0 0 26.893 32.643">
  <g id="secure" transform="translate(0.1 0.119)">
    <path id="Path_639" data-name="Path 639" d="M298.408,242.794a.706.706,0,0,0,1,0l6.925-6.925a.706.706,0,0,0-1-1l-6.425,6.426-2.144-2.144a.706.706,0,0,0-1,1Z" transform="translate(-287.701 -222.902)" fill="#424954" stroke="#424954" stroke-width="0.1"/>
    <path id="Path_640" data-name="Path 640" d="M173.025,81.4a.49.49,0,0,0,.3,0c.539-.174,13.195-4.374,13.195-13.322l0-14.412a.492.492,0,0,0-.456-.49c-3.856-.279-8.771-.993-12.579-4.068a.491.491,0,0,0-.617,0c-3.808,3.074-8.723,3.789-12.579,4.068a.492.492,0,0,0-.456.49l0,14.412c0,8.948,12.657,13.148,13.2,13.322Zm-12.21-27.278c3.822-.306,8.543-1.082,12.361-4.005,3.818,2.923,8.539,3.7,12.361,4.006l0,13.956c0,7.736-10.939,11.835-12.363,12.335-1.424-.5-12.363-4.6-12.363-12.335Z" transform="translate(-159.829 -48.996)" fill="#424954" stroke="#424954" stroke-width="0.2"/>
  </g>
</svg>
